<?xml version="1.0" standalone="no"?>
<!DOCTYPE svg PUBLIC "-//W3C//DTD SVG 20010904//EN"
 "http://www.w3.org/TR/2001/REC-SVG-20010904/DTD/svg10.dtd">
<svg version="1.0" xmlns="http://www.w3.org/2000/svg"
 width="1024.000000pt" height="1024.000000pt" viewBox="0 0 1024.000000 1024.000000"
 preserveAspectRatio="xMidYMid meet">

<g transform="translate(0.000000,1024.000000) scale(0.100000,-0.100000)"
fill="#000000" stroke="none">
<path d="M2674 6983 c12 -41 36 -156 36 -173 0 -23 -104 -207 -1140 -2020
-218 -382 -402 -705 -409 -717 l-12 -23 309 0 309 0 73 123 c166 277 254 380
390 451 138 73 166 76 677 76 361 0 455 -3 459 -13 2 -7 35 -152 72 -322 l68
-310 502 -3 c397 -2 503 0 507 10 2 7 20 137 39 288 175 1370 209 1614 221
1585 5 -11 23 -45 40 -75 18 -30 85 -152 150 -270 65 -118 187 -339 270 -490
189 -341 342 -620 471 -858 65 -120 104 -182 113 -180 15 3 124 178 507 810
l204 337 45 338 c25 186 54 403 65 483 11 80 38 285 60 455 22 171 46 354 53
408 8 53 11 100 8 102 -2 3 -150 5 -328 5 l-323 0 0 -24 c0 -14 -38 -319 -85
-678 -121 -931 -134 -1028 -141 -1073 l-6 -39 -26 49 c-29 58 -389 707 -501
905 -43 74 -169 298 -282 497 l-204 363 -302 0 -301 0 -6 -37 c-14 -89 -45
-331 -156 -1216 -65 -516 -119 -940 -122 -942 -5 -5 -68 284 -219 1000 -60
286 -128 603 -150 705 -22 102 -54 254 -71 338 l-31 152 -419 0 c-395 0 -419
-1 -414 -17z m381 -863 c9 -47 55 -260 101 -474 46 -214 83 -391 81 -393 -2
-2 -177 -2 -390 -1 l-385 3 50 85 c149 252 431 735 468 803 23 43 46 75 50 70
4 -4 15 -46 25 -93z"/>
<path d="M7524 6985 c3 -8 13 -54 22 -103 l17 -87 -113 -195 c-62 -107 -138
-238 -168 -290 -59 -103 -440 -756 -717 -1230 -95 -162 -270 -457 -389 -655
l-215 -360 322 -3 c177 -1 327 0 332 2 6 2 38 48 70 102 177 295 262 392 409
464 142 70 146 70 658 70 l457 0 11 -42 c7 -23 31 -127 55 -232 24 -105 53
-233 65 -283 l22 -93 339 0 c186 0 339 3 339 8 0 4 -165 667 -367 1475 l-367
1467 -394 0 c-346 0 -393 -2 -388 -15z m441 -1135 c73 -335 121 -547 131 -582
5 -17 -18 -18 -386 -18 l-392 0 15 23 c17 26 470 807 513 884 16 29 32 49 36
45 4 -4 41 -162 83 -352z"/>
</g>
</svg>
